<mxfile host="app.diagrams.net" modified="2021-09-23T08:54:25.068Z" agent="5.0 (Windows)" etag="JRCGd59iCjFmxDLjv2tX" version="15.3.0" type="github">
  <diagram id="XQ1qFykJq0oOS6wbcltK" name="Page-1">
    <mxGraphModel dx="1221" dy="582" grid="1" gridSize="10" guides="1" tooltips="1" connect="1" arrows="1" fold="1" page="1" pageScale="1" pageWidth="827" pageHeight="1169" math="0" shadow="0">
      <root>
        <mxCell id="0" />
        <mxCell id="1" parent="0" />
        <mxCell id="Kpir1o8mjc8HMpxwVTUb-37" value="&lt;span&gt;Предлагает проекты заказчику&lt;/span&gt;" style="ellipse;whiteSpace=wrap;html=1;rounded=1;glass=0;sketch=0;strokeColor=#82b366;fillColor=#d5e8d4;" parent="1" vertex="1">
          <mxGeometry x="80" y="50" width="120" height="80" as="geometry" />
        </mxCell>
        <mxCell id="Kpir1o8mjc8HMpxwVTUb-38" value="&lt;span&gt;Следит за качеством выполненных проектов&lt;/span&gt;" style="ellipse;whiteSpace=wrap;html=1;rounded=1;glass=0;sketch=0;strokeColor=#82b366;fillColor=#d5e8d4;" parent="1" vertex="1">
          <mxGeometry x="160" y="110" width="140" height="80" as="geometry" />
        </mxCell>
        <mxCell id="Kpir1o8mjc8HMpxwVTUb-39" value="&lt;span&gt;Составляет план работы&lt;/span&gt;" style="ellipse;whiteSpace=wrap;html=1;rounded=1;glass=0;sketch=0;strokeColor=#82b366;fillColor=#d5e8d4;" parent="1" vertex="1">
          <mxGeometry x="260" y="170" width="120" height="80" as="geometry" />
        </mxCell>
        <mxCell id="Kpir1o8mjc8HMpxwVTUb-41" value="&lt;span&gt;Общается с заказчиком&lt;/span&gt;" style="ellipse;whiteSpace=wrap;html=1;rounded=1;glass=0;sketch=0;strokeColor=#82b366;fillColor=#d5e8d4;" parent="1" vertex="1">
          <mxGeometry x="260" y="250" width="120" height="80" as="geometry" />
        </mxCell>
        <mxCell id="Kpir1o8mjc8HMpxwVTUb-43" value="&lt;span&gt;Платит заработную платну рабочим &lt;br&gt;&lt;/span&gt;" style="ellipse;whiteSpace=wrap;html=1;rounded=1;glass=0;sketch=0;strokeColor=#82b366;fillColor=#d5e8d4;" parent="1" vertex="1">
          <mxGeometry x="170" y="310" width="120" height="80" as="geometry" />
        </mxCell>
        <mxCell id="Kpir1o8mjc8HMpxwVTUb-44" value="&lt;span&gt;Выполняет рабочий план&lt;/span&gt;" style="ellipse;whiteSpace=wrap;html=1;rounded=1;glass=0;sketch=0;strokeColor=#d6b656;fillColor=#fff2cc;" parent="1" vertex="1">
          <mxGeometry x="210" y="450" width="120" height="80" as="geometry" />
        </mxCell>
        <mxCell id="Kpir1o8mjc8HMpxwVTUb-45" value="&lt;span&gt;Получает заработную плату&lt;/span&gt;" style="ellipse;whiteSpace=wrap;html=1;rounded=1;glass=0;sketch=0;strokeColor=#d6b656;fillColor=#fff2cc;" parent="1" vertex="1">
          <mxGeometry x="210" y="530" width="120" height="80" as="geometry" />
        </mxCell>
        <mxCell id="Kpir1o8mjc8HMpxwVTUb-46" value="&lt;span&gt;Выбирает предложенные проекты&lt;/span&gt;" style="ellipse;whiteSpace=wrap;html=1;rounded=1;glass=0;sketch=0;strokeColor=#b85450;fillColor=#f8cecc;" parent="1" vertex="1">
          <mxGeometry x="520" y="50" width="120" height="80" as="geometry" />
        </mxCell>
        <mxCell id="Kpir1o8mjc8HMpxwVTUb-47" value="&lt;span&gt;Приобретает проект&lt;/span&gt;" style="ellipse;whiteSpace=wrap;html=1;rounded=1;glass=0;sketch=0;strokeColor=#b85450;fillColor=#f8cecc;" parent="1" vertex="1">
          <mxGeometry x="460" y="120" width="120" height="80" as="geometry" />
        </mxCell>
        <mxCell id="Kpir1o8mjc8HMpxwVTUb-48" value="&lt;span&gt;Оплачивает работу&lt;/span&gt;" style="ellipse;whiteSpace=wrap;html=1;rounded=1;glass=0;sketch=0;strokeColor=#b85450;fillColor=#f8cecc;" parent="1" vertex="1">
          <mxGeometry x="530" y="190" width="120" height="80" as="geometry" />
        </mxCell>
        <mxCell id="Kpir1o8mjc8HMpxwVTUb-49" value="&lt;span&gt;Получает заработную плату&lt;/span&gt;" style="ellipse;whiteSpace=wrap;html=1;rounded=1;glass=0;sketch=0;fillColor=#f5f5f5;strokeColor=#666666;fontColor=#333333;" parent="1" vertex="1">
          <mxGeometry x="525" y="290" width="120" height="80" as="geometry" />
        </mxCell>
        <mxCell id="Kpir1o8mjc8HMpxwVTUb-50" value="&lt;span&gt;Разрабатывает дизайн-проекты&lt;/span&gt;" style="ellipse;whiteSpace=wrap;html=1;rounded=1;glass=0;sketch=0;fillColor=#f5f5f5;strokeColor=#666666;fontColor=#333333;" parent="1" vertex="1">
          <mxGeometry x="445" y="350" width="120" height="80" as="geometry" />
        </mxCell>
        <mxCell id="Kpir1o8mjc8HMpxwVTUb-51" value="&lt;span style=&quot;color: rgb(0 , 0 , 0)&quot;&gt;Передаёт разработанные проекты прорабу&lt;/span&gt;" style="ellipse;whiteSpace=wrap;html=1;rounded=1;glass=0;sketch=0;strokeColor=#666666;fillColor=#f5f5f5;fontColor=#333333;" parent="1" vertex="1">
          <mxGeometry x="525" y="410" width="120" height="80" as="geometry" />
        </mxCell>
        <mxCell id="dR1OVEYBxEX-2KLRKlJh-6" style="rounded=0;orthogonalLoop=1;jettySize=auto;html=1;endArrow=none;endFill=0;" edge="1" parent="1" target="Kpir1o8mjc8HMpxwVTUb-37">
          <mxGeometry relative="1" as="geometry">
            <mxPoint x="95.06097560975604" y="224" as="sourcePoint" />
          </mxGeometry>
        </mxCell>
        <mxCell id="dR1OVEYBxEX-2KLRKlJh-7" style="edgeStyle=none;rounded=0;orthogonalLoop=1;jettySize=auto;html=1;endArrow=none;endFill=0;" edge="1" parent="1" target="Kpir1o8mjc8HMpxwVTUb-38">
          <mxGeometry relative="1" as="geometry">
            <mxPoint x="100" y="243.24137931034488" as="sourcePoint" />
          </mxGeometry>
        </mxCell>
        <mxCell id="dR1OVEYBxEX-2KLRKlJh-8" style="edgeStyle=none;rounded=0;orthogonalLoop=1;jettySize=auto;html=1;endArrow=none;endFill=0;" edge="1" parent="1" source="dR1OVEYBxEX-2KLRKlJh-1" target="Kpir1o8mjc8HMpxwVTUb-39">
          <mxGeometry relative="1" as="geometry" />
        </mxCell>
        <mxCell id="dR1OVEYBxEX-2KLRKlJh-9" style="edgeStyle=none;rounded=0;orthogonalLoop=1;jettySize=auto;html=1;endArrow=none;endFill=0;" edge="1" parent="1" source="dR1OVEYBxEX-2KLRKlJh-1" target="Kpir1o8mjc8HMpxwVTUb-41">
          <mxGeometry relative="1" as="geometry" />
        </mxCell>
        <mxCell id="dR1OVEYBxEX-2KLRKlJh-10" style="edgeStyle=none;rounded=0;orthogonalLoop=1;jettySize=auto;html=1;endArrow=none;endFill=0;" edge="1" parent="1" source="dR1OVEYBxEX-2KLRKlJh-1" target="Kpir1o8mjc8HMpxwVTUb-43">
          <mxGeometry relative="1" as="geometry" />
        </mxCell>
        <mxCell id="dR1OVEYBxEX-2KLRKlJh-12" style="edgeStyle=none;rounded=0;orthogonalLoop=1;jettySize=auto;html=1;endArrow=none;endFill=0;" edge="1" parent="1" source="dR1OVEYBxEX-2KLRKlJh-1" target="dR1OVEYBxEX-2KLRKlJh-11">
          <mxGeometry relative="1" as="geometry" />
        </mxCell>
        <mxCell id="dR1OVEYBxEX-2KLRKlJh-1" value="Прораб" style="shape=umlActor;verticalLabelPosition=bottom;verticalAlign=top;html=1;outlineConnect=0;fillColor=#d5e8d4;strokeColor=#82b366;" vertex="1" parent="1">
          <mxGeometry x="70" y="214" width="30" height="60" as="geometry" />
        </mxCell>
        <mxCell id="dR1OVEYBxEX-2KLRKlJh-13" style="edgeStyle=none;rounded=0;orthogonalLoop=1;jettySize=auto;html=1;endArrow=none;endFill=0;" edge="1" parent="1" source="dR1OVEYBxEX-2KLRKlJh-2" target="Kpir1o8mjc8HMpxwVTUb-46">
          <mxGeometry relative="1" as="geometry" />
        </mxCell>
        <mxCell id="dR1OVEYBxEX-2KLRKlJh-14" style="edgeStyle=none;rounded=0;orthogonalLoop=1;jettySize=auto;html=1;endArrow=none;endFill=0;" edge="1" parent="1" source="dR1OVEYBxEX-2KLRKlJh-2" target="Kpir1o8mjc8HMpxwVTUb-47">
          <mxGeometry relative="1" as="geometry" />
        </mxCell>
        <mxCell id="dR1OVEYBxEX-2KLRKlJh-15" style="edgeStyle=none;rounded=0;orthogonalLoop=1;jettySize=auto;html=1;endArrow=none;endFill=0;" edge="1" parent="1" source="dR1OVEYBxEX-2KLRKlJh-2" target="Kpir1o8mjc8HMpxwVTUb-48">
          <mxGeometry relative="1" as="geometry" />
        </mxCell>
        <mxCell id="dR1OVEYBxEX-2KLRKlJh-2" value="&lt;div&gt;Заказчик&lt;/div&gt;" style="shape=umlActor;verticalLabelPosition=bottom;verticalAlign=top;html=1;outlineConnect=0;fillColor=#f8cecc;strokeColor=#b85450;" vertex="1" parent="1">
          <mxGeometry x="705" y="130" width="30" height="60" as="geometry" />
        </mxCell>
        <mxCell id="dR1OVEYBxEX-2KLRKlJh-19" style="edgeStyle=none;rounded=0;orthogonalLoop=1;jettySize=auto;html=1;endArrow=none;endFill=0;" edge="1" parent="1" source="dR1OVEYBxEX-2KLRKlJh-3" target="Kpir1o8mjc8HMpxwVTUb-44">
          <mxGeometry relative="1" as="geometry" />
        </mxCell>
        <mxCell id="dR1OVEYBxEX-2KLRKlJh-20" style="edgeStyle=none;rounded=0;orthogonalLoop=1;jettySize=auto;html=1;endArrow=none;endFill=0;" edge="1" parent="1" source="dR1OVEYBxEX-2KLRKlJh-3" target="Kpir1o8mjc8HMpxwVTUb-45">
          <mxGeometry relative="1" as="geometry" />
        </mxCell>
        <mxCell id="dR1OVEYBxEX-2KLRKlJh-3" value="Рабочий" style="shape=umlActor;verticalLabelPosition=bottom;verticalAlign=top;html=1;outlineConnect=0;fillColor=#fff2cc;strokeColor=#d6b656;" vertex="1" parent="1">
          <mxGeometry x="70" y="490" width="30" height="60" as="geometry" />
        </mxCell>
        <mxCell id="dR1OVEYBxEX-2KLRKlJh-16" style="edgeStyle=none;rounded=0;orthogonalLoop=1;jettySize=auto;html=1;endArrow=none;endFill=0;" edge="1" parent="1" source="dR1OVEYBxEX-2KLRKlJh-4" target="Kpir1o8mjc8HMpxwVTUb-49">
          <mxGeometry relative="1" as="geometry" />
        </mxCell>
        <mxCell id="dR1OVEYBxEX-2KLRKlJh-17" style="edgeStyle=none;rounded=0;orthogonalLoop=1;jettySize=auto;html=1;endArrow=none;endFill=0;" edge="1" parent="1" source="dR1OVEYBxEX-2KLRKlJh-4" target="Kpir1o8mjc8HMpxwVTUb-50">
          <mxGeometry relative="1" as="geometry" />
        </mxCell>
        <mxCell id="dR1OVEYBxEX-2KLRKlJh-18" style="edgeStyle=none;rounded=0;orthogonalLoop=1;jettySize=auto;html=1;endArrow=none;endFill=0;" edge="1" parent="1" source="dR1OVEYBxEX-2KLRKlJh-4" target="Kpir1o8mjc8HMpxwVTUb-51">
          <mxGeometry relative="1" as="geometry" />
        </mxCell>
        <mxCell id="dR1OVEYBxEX-2KLRKlJh-4" value="Дизайнер" style="shape=umlActor;verticalLabelPosition=bottom;verticalAlign=top;html=1;outlineConnect=0;fillColor=#f5f5f5;strokeColor=#666666;fontColor=#333333;" vertex="1" parent="1">
          <mxGeometry x="705" y="360" width="30" height="60" as="geometry" />
        </mxCell>
        <mxCell id="dR1OVEYBxEX-2KLRKlJh-11" value="&lt;span&gt;Платит заработную платну дизайнерам&lt;/span&gt;" style="ellipse;whiteSpace=wrap;html=1;rounded=1;glass=0;sketch=0;strokeColor=#82b366;fillColor=#d5e8d4;" vertex="1" parent="1">
          <mxGeometry x="80" y="370" width="120" height="80" as="geometry" />
        </mxCell>
      </root>
    </mxGraphModel>
  </diagram>
</mxfile>
